<svg width="100" height="100" viewBox="0 0 100 100" fill="none" xmlns="http://www.w3.org/2000/svg">
<path d="M55.2143 57H34.7857C34.5773 57 34.3775 57.079 34.2301 57.2197C34.0828 57.3603 34 57.5511 34 57.75V59.25C34 59.4489 34.0828 59.6397 34.2301 59.7803C34.3775 59.921 34.5773 60 34.7857 60H55.2143C55.4227 60 55.6225 59.921 55.7699 59.7803C55.9172 59.6397 56 59.4489 56 59.25V57.75C56 57.5511 55.9172 57.3603 55.7699 57.2197C55.6225 57.079 55.4227 57 55.2143 57ZM55.2143 51H34.7857C34.5773 51 34.3775 51.079 34.2301 51.2197C34.0828 51.3603 34 51.5511 34 51.75V53.25C34 53.4489 34.0828 53.6397 34.2301 53.7803C34.3775 53.921 34.5773 54 34.7857 54H55.2143C55.4227 54 55.6225 53.921 55.7699 53.7803C55.9172 53.6397 56 53.4489 56 53.25V51.75C56 51.5511 55.9172 51.3603 55.7699 51.2197C55.6225 51.079 55.4227 51 55.2143 51ZM55.2143 45H34.7857C34.5773 45 34.3775 45.079 34.2301 45.2197C34.0828 45.3603 34 45.5511 34 45.75V47.25C34 47.4489 34.0828 47.6397 34.2301 47.7803C34.3775 47.921 34.5773 48 34.7857 48H55.2143C55.4227 48 55.6225 47.921 55.7699 47.7803C55.9172 47.6397 56 47.4489 56 47.25V45.75C56 45.5511 55.9172 45.3603 55.7699 45.2197C55.6225 45.079 55.4227 45 55.2143 45ZM55.2143 39H34.7857C34.5773 39 34.3775 39.079 34.2301 39.2197C34.0828 39.3603 34 39.5511 34 39.75V41.25C34 41.4489 34.0828 41.6397 34.2301 41.7803C34.3775 41.921 34.5773 42 34.7857 42H55.2143C55.4227 42 55.6225 41.921 55.7699 41.7803C55.9172 41.6397 56 41.4489 56 41.25V39.75C56 39.5511 55.9172 39.3603 55.7699 39.2197C55.6225 39.079 55.4227 39 55.2143 39Z" fill="white"/>
</svg>
