<svg width="140" height="21" viewBox="0 0 140 21" fill="none" xmlns="http://www.w3.org/2000/svg">
<g opacity="0.8">
<g clip-path="url(#clip0_124_346)">
<path d="M20 11C20 5.47715 15.5229 1 10 1C4.47715 1 0 5.47715 0 11C0 15.9912 3.65684 20.1283 8.4375 20.8785V13.8906H5.89844V11H8.4375V8.79688C8.4375 6.29063 9.93047 4.90625 12.2146 4.90625C13.3084 4.90625 14.4531 5.10156 14.4531 5.10156V7.5625H13.1922C11.95 7.5625 11.5625 8.3334 11.5625 9.125V11H14.3359L13.8926 13.8906H11.5625V20.8785C16.3432 20.1283 20 15.9912 20 11Z" fill="#1D2130"/>
</g>
<g clip-path="url(#clip1_124_346)">
<path d="M46.2918 19.1246C53.8371 19.1246 57.9652 12.8719 57.9652 7.45118C57.9652 7.2754 57.9613 7.09572 57.9535 6.91993C58.7566 6.33918 59.4496 5.61985 60 4.79572C59.2521 5.12847 58.458 5.34579 57.6449 5.44025C58.5011 4.92706 59.1421 4.12086 59.4492 3.17111C58.6438 3.64843 57.763 3.98514 56.8445 4.16681C56.2257 3.50927 55.4075 3.0739 54.5164 2.92801C53.6253 2.78212 52.711 2.93384 51.9148 3.35971C51.1186 3.78559 50.4848 4.46189 50.1115 5.28406C49.7382 6.10623 49.6462 7.02848 49.8496 7.90822C48.2187 7.82638 46.6233 7.40272 45.1667 6.66472C43.71 5.92671 42.4247 4.89083 41.3941 3.62423C40.8703 4.52734 40.71 5.596 40.9459 6.61304C41.1817 7.63008 41.7959 8.51917 42.6637 9.09962C42.0122 9.07894 41.375 8.90353 40.8047 8.5879V8.63868C40.8041 9.58643 41.1317 10.5051 41.7319 11.2386C42.3321 11.9721 43.1678 12.4751 44.0969 12.6621C43.4934 12.8272 42.86 12.8513 42.2457 12.7324C42.5079 13.5475 43.018 14.2604 43.7048 14.7716C44.3916 15.2828 45.2209 15.5668 46.077 15.584C44.6237 16.7256 42.8285 17.3447 40.9805 17.3418C40.6527 17.3413 40.3253 17.3212 40 17.2817C41.8774 18.4861 44.0613 19.1258 46.2918 19.1246Z" fill="#1D2130"/>
</g>
<g clip-path="url(#clip2_124_346)">
<path d="M98.5195 1H81.4766C80.6602 1 80 1.64453 80 2.44141V19.5547C80 20.3516 80.6602 21 81.4766 21H98.5195C99.3359 21 100 20.3516 100 19.5586V2.44141C100 1.64453 99.3359 1 98.5195 1ZM85.9336 18.043H82.9648V8.49609H85.9336V18.043ZM84.4492 7.19531C83.4961 7.19531 82.7266 6.42578 82.7266 5.47656C82.7266 4.52734 83.4961 3.75781 84.4492 3.75781C85.3984 3.75781 86.168 4.52734 86.168 5.47656C86.168 6.42188 85.3984 7.19531 84.4492 7.19531ZM97.043 18.043H94.0781V13.4023C94.0781 12.2969 94.0586 10.8711 92.5352 10.8711C90.9922 10.8711 90.7578 12.0781 90.7578 13.3242V18.043H87.7969V8.49609H90.6406V9.80078H90.6797C91.0742 9.05078 92.043 8.25781 93.4844 8.25781C96.4883 8.25781 97.043 10.2344 97.043 12.8047V18.043Z" fill="#1D2130"/>
</g>
</g>
<path d="M134 1H124C121.239 1 119 3.0185 119 5.50844V14.5253C119 17.0153 121.239 19.0338 124 19.0338H134C136.761 19.0338 139 17.0153 139 14.5253V5.50844C139 3.0185 136.761 1 134 1Z" stroke="black" stroke-opacity="0.91" stroke-width="2" stroke-linecap="round" stroke-linejoin="round"/>
<path d="M133 9.4488C133.124 10.1992 132.981 10.9656 132.594 11.639C132.206 12.3124 131.593 12.8585 130.842 13.1995C130.09 13.5406 129.239 13.6593 128.408 13.5388C127.577 13.4183 126.81 13.0646 126.215 12.5282C125.62 11.9918 125.228 11.2998 125.094 10.5509C124.961 9.80186 125.092 9.03393 125.471 8.35629C125.849 7.67865 126.454 7.12582 127.201 6.77641C127.948 6.42701 128.798 6.29883 129.63 6.41011C130.479 6.52362 131.265 6.88031 131.872 7.42749C132.479 7.97467 132.874 8.68333 133 9.4488Z" stroke="black" stroke-opacity="0.91" stroke-width="2" stroke-linecap="round" stroke-linejoin="round"/>
<defs>
<clipPath id="clip0_124_346">
<rect width="20" height="20" fill="white" transform="translate(0 1)"/>
</clipPath>
<clipPath id="clip1_124_346">
<rect width="20" height="20" fill="white" transform="translate(40 1)"/>
</clipPath>
<clipPath id="clip2_124_346">
<rect width="20" height="20" fill="white" transform="translate(80 1)"/>
</clipPath>
</defs>
</svg>
