<svg width="11" height="11" viewBox="0 0 11 11" fill="none" xmlns="http://www.w3.org/2000/svg">
<path d="M9.1374 5.01483C9.26081 5.84708 9.11866 6.69705 8.73116 7.44385C8.34366 8.19065 7.73055 8.79625 6.97903 9.17451C6.22751 9.55277 5.37585 9.68443 4.54519 9.55077C3.71453 9.4171 2.94716 9.02492 2.35224 8.42999C1.75732 7.83507 1.36513 7.06771 1.23147 6.23705C1.09781 5.40639 1.22947 4.55473 1.60773 3.80321C1.98599 3.05169 2.59159 2.43857 3.33839 2.05107C4.08519 1.66357 4.93516 1.52142 5.7674 1.64483C6.61633 1.77072 7.40225 2.1663 8.0091 2.77314C8.61594 3.37998 9.01152 4.16591 9.1374 5.01483Z" stroke="black" stroke-width="2" stroke-linecap="round" stroke-linejoin="round"/>
</svg>
