<svg width="23" height="20" viewBox="0 0 23 20" fill="none" xmlns="http://www.w3.org/2000/svg">
<path d="M14.375 13.5714C14.375 13.9661 14.0534 14.2857 13.6562 14.2857H9.34375C8.94664 14.2857 8.625 13.9661 8.625 13.5714V11.4286H0V17.8571C0 19 1.00625 20 2.15625 20H20.8438C21.9937 20 23 19 23 17.8571V11.4286H14.375V13.5714ZM20.8438 4.28571H17.25V2.14286C17.25 1 16.2437 0 15.0938 0H7.90625C6.75625 0 5.75 1 5.75 2.14286V4.28571H2.15625C1.00625 4.28571 0 5.28571 0 6.42857V10H23V6.42857C23 5.28571 21.9937 4.28571 20.8438 4.28571ZM14.375 4.28571H8.625V2.85714H14.375V4.28571Z" fill="black" fill-opacity="0.54"/>
</svg>
