<svg width="25" height="24" viewBox="0 0 25 24" fill="none" xmlns="http://www.w3.org/2000/svg">
<path d="M24.375 18.7553H14.9039C14.875 19.6484 14.3293 20.198 13.625 20.198H11.25C10.5199 20.198 9.96016 19.4104 9.96992 18.7553H0.625C0.28125 18.7553 0 19.0799 0 19.4767V20.198C0 21.785 1.125 23.0835 2.5 23.0835H22.5C23.875 23.0835 25 21.785 25 20.198V19.4767C25 19.0799 24.7188 18.7553 24.375 18.7553ZM22.5 2.16407C22.5 0.973834 21.6562 0 20.625 0H4.375C3.34375 0 2.5 0.973834 2.5 2.16407V17.3126H22.5V2.16407ZM20 14.4272H5V2.88543H20V14.4272Z" fill="white"/>
</svg>
