<svg width="25" height="27" viewBox="0 0 25 27" fill="none" xmlns="http://www.w3.org/2000/svg">
<path d="M15.625 17.926C15.625 18.4244 15.2754 18.828 14.8438 18.828H10.1562C9.72461 18.828 9.375 18.4244 9.375 17.926V15.2198H0V23.3383C0 24.7815 1.09375 26.0444 2.34375 26.0444H22.6562C23.9062 26.0444 25 24.7815 25 23.3383V15.2198H15.625V17.926ZM22.6562 6.19939H18.75V3.49325C18.75 2.04997 17.6562 0.787109 16.4062 0.787109H8.59375C7.34375 0.787109 6.25 2.04997 6.25 3.49325V6.19939H2.34375C1.09375 6.19939 0 7.46225 0 8.90553V13.4158H25V8.90553C25 7.46225 23.9062 6.19939 22.6562 6.19939ZM15.625 6.19939H9.375V4.39529H15.625V6.19939Z" fill="white"/>
</svg>
