<svg width="48" height="49" viewBox="0 0 48 49" fill="none" xmlns="http://www.w3.org/2000/svg">
<path d="M22 28.5195V21.5195L20 22.832" stroke="white" stroke-width="1.5" stroke-linecap="round" stroke-linejoin="round"/>
<path d="M25 28.0822C25.3134 28.3568 25.7029 28.5195 26.125 28.5195C27.1605 28.5195 28 27.5402 28 26.332C28 25.1239 27.1605 24.1445 26.125 24.1445C25.7029 24.1445 25.3134 24.3073 25 24.5819L25.375 21.5195H28" stroke="white" stroke-width="1.5" stroke-linecap="round" stroke-linejoin="round"/>
<path d="M32.1839 16.3236C37.0309 20.7173 37.2961 28.0985 32.7762 32.8101C28.2563 37.5217 20.663 37.7794 15.8161 33.3858C10.9691 28.9922 10.7039 21.6109 15.2238 16.8994C17.7947 14.2194 21.36 12.9804 24.8486 13.2188M23.1429 10.5195L26.1992 13.3525L23.1429 16.3905" stroke="white" stroke-width="2" stroke-linecap="round" stroke-linejoin="round"/>
</svg>
