<svg width="48" height="49" viewBox="0 0 48 49" fill="none" xmlns="http://www.w3.org/2000/svg">
<path d="M22 28.5195V21.5195L20 22.832" stroke="white" stroke-width="1.5" stroke-linecap="round" stroke-linejoin="round"/>
<path d="M25 28.0822C25.3134 28.3568 25.7029 28.5195 26.125 28.5195C27.1605 28.5195 28 27.5402 28 26.332C28 25.1239 27.1605 24.1445 26.125 24.1445C25.7029 24.1445 25.3134 24.3073 25 24.5819L25.375 21.5195H28" stroke="white" stroke-width="1.5" stroke-linecap="round" stroke-linejoin="round"/>
<path d="M15.8161 16.3236C10.9691 20.7173 10.7039 28.0985 15.2238 32.8101C19.7437 37.5217 27.337 37.7794 32.1839 33.3858C37.0309 28.9922 37.2961 21.6109 32.7762 16.8994C30.2053 14.2194 26.64 12.9804 23.1514 13.2188M24.8571 10.5195L21.8008 13.3525L24.8571 16.3905" stroke="white" stroke-width="2" stroke-linecap="round" stroke-linejoin="round"/>
</svg>
