<svg width="48" height="49" viewBox="0 0 48 49" fill="none" xmlns="http://www.w3.org/2000/svg">
<path d="M33.8027 20.5195C33.9334 21.8352 34.0002 23.1695 34.0002 24.5195C34.0002 25.8695 33.9334 27.2039 33.8027 28.5195" stroke="white" stroke-width="1.5" stroke-linecap="round"/>
<path d="M29.877 21.5195C29.9586 22.5087 30.0002 23.5093 30.0002 24.5195C30.0002 25.5298 29.9586 26.5303 29.877 27.5195" stroke="white" stroke-width="1.5" stroke-linecap="round"/>
<path d="M25 24.5195C25 21.9777 24.7849 19.4896 24.373 17.0752C24.2494 16.3508 23.4028 16.0327 22.8175 16.4772L19.5363 18.9694C19.1884 19.2336 18.7635 19.3767 18.3266 19.3767H15C13.8954 19.3767 13 20.2721 13 21.3767V27.6624C13 28.767 13.8954 29.6624 15 29.6624H18.3266C18.7635 29.6624 19.1884 29.8054 19.5363 30.0697L22.8175 32.5618C23.4027 33.0063 24.2494 32.6883 24.373 31.9639C24.7849 29.5494 25 27.0614 25 24.5195Z" fill="white" stroke="white" stroke-linejoin="round"/>
</svg>
